HIERARCHY
ROOT Hips
{
	OFFSET 0.000000 0.000000 0.000000
	CHANNELS 6 Xposition Yposition Zposition Zrotation Yrotation Xrotation 
	JOINT LeftUpLeg_virtual
	{
		OFFSET 0.000000 0.000000 0.000000
		CHANNELS 3 Zrotation Yrotation Xrotation
		JOINT LeftUpLeg
		{
			OFFSET 10.205400 -3.823500 0.155100
			CHANNELS 3 Zrotation Yrotation Xrotation
			JOINT LeftLeg
			{
				OFFSET 0.708757 -12.982077 0.567790
				CHANNELS 3 Zrotation Yrotation Xrotation
				JOINT LeftFoot
				{
					OFFSET -0.708756 -10.717838 -2.184338
					CHANNELS 3 Zrotation Yrotation Xrotation
					JOINT LeftToeBase
					{
						OFFSET 0.108149 -7.191104 7.560241
						CHANNELS 3 Zrotation Yrotation Xrotation
						End Site
						{
							OFFSET 0.000000 0.000000 0.000000
						}
					}
				}
			}
		}
	}
	JOINT RightUpLeg_virtual
	{
		OFFSET 0.000000 0.000000 0.000000
		CHANNELS 3 Zrotation Yrotation Xrotation
		JOINT RightUpLeg
		{
			OFFSET -10.205400 -3.823500 0.005500
			CHANNELS 3 Zrotation Yrotation Xrotation
			JOINT RightLeg
			{
				OFFSET -0.708756 -12.982134 0.610632
				CHANNELS 3 Zrotation Yrotation Xrotation
				JOINT RightFoot
				{
					OFFSET 0.708754 -10.717769 -1.945823
					CHANNELS 3 Zrotation Yrotation Xrotation
					JOINT RightToeBase
					{
						OFFSET -0.108140 -7.191069 7.372968
						CHANNELS 3 Zrotation Yrotation Xrotation
						End Site
						{
							OFFSET 0.000000 0.000000 0.000000
						}
					}
				}
			}
		}
	}
	JOINT Spine_virtual
	{
		OFFSET 0.000000 0.000000 0.000000
		CHANNELS 3 Zrotation Yrotation Xrotation
		JOINT Spine
		{
			OFFSET 0.000000 6.876099 0.125700
			CHANNELS 3 Zrotation Yrotation Xrotation
			JOINT Spine1
			{
				OFFSET 0.000000 8.022060 0.146608
				CHANNELS 3 Zrotation Yrotation Xrotation
				JOINT Spine2
				{
					OFFSET 0.000000 9.168068 0.167552
					CHANNELS 3 Zrotation Yrotation Xrotation
					JOINT Neck_virtual
					{
						OFFSET 0.000000 0.000000 0.000000
						CHANNELS 3 Zrotation Yrotation Xrotation
						JOINT Neck
						{
							OFFSET 0.000000 10.314075 0.188496
							CHANNELS 3 Zrotation Yrotation Xrotation
							JOINT Head
							{
								OFFSET 0.000000 7.643700 -2.377400
								CHANNELS 3 Zrotation Yrotation Xrotation
								End Site
								{
									OFFSET 0.000000 0.000000 0.000000
								}
							}
						}
					}
					JOINT LeftShoulder_virtual
					{
						OFFSET 0.000000 0.000000 0.000000
						CHANNELS 3 Zrotation Yrotation Xrotation
						JOINT LeftShoulder
						{
							OFFSET 4.392200 8.824978 0.174984
							CHANNELS 3 Zrotation Yrotation Xrotation
							JOINT LeftArm
							{
								OFFSET 8.771219 -2.981674 -0.026999
								CHANNELS 3 Zrotation Yrotation Xrotation
								JOINT LeftForeArm
								{
									OFFSET 8.512804 0.000000 -0.000000
									CHANNELS 3 Zrotation Yrotation Xrotation
									JOINT LeftHand
									{
										OFFSET 18.484802 0.000000 -0.000000
										CHANNELS 3 Zrotation Yrotation Xrotation
										End Site
										{
											OFFSET 0.000000 0.000000 0.000000
										}
									}
								}
							}
						}
					}
					JOINT RightShoulder_virtual
					{
						OFFSET 0.000000 0.000000 0.000000
						CHANNELS 3 Zrotation Yrotation Xrotation
						JOINT RightShoulder
						{
							OFFSET -4.392200 8.824993 0.141379
							CHANNELS 3 Zrotation Yrotation Xrotation
							JOINT RightArm
							{
								OFFSET -8.771282 -2.981682 -0.094208
								CHANNELS 3 Zrotation Yrotation Xrotation
								JOINT RightForeArm
								{
									OFFSET -8.494598 0.000000 0.000000
									CHANNELS 3 Zrotation Yrotation Xrotation
									JOINT RightHand
									{
										OFFSET -18.483803 0.000000 0.000001
										CHANNELS 3 Zrotation Yrotation Xrotation
										End Site
										{
											OFFSET 0.000000 0.000000 0.000000
										}
									}
								}
							}
						}
					}
				}
			}
		}
	}
}
MOTION
Frames: 8
Frame Time: 0.033333
-21.320530 5.430709 -0.204188 -179.537383 82.827826 -179.812735 -1.102696 -7.806880 -30.004809 -6.058443 17.139141 -90.453575 12.693836 -2.264457 82.704479 4.356646 -25.020969 -5.365169 0.000000 0.000000 0.000000 -5.203834 -0.794913 -25.169274 4.167533 -22.391001 -107.080940 -0.986502 -5.680749 132.527007 -5.964145 32.641542 7.989520 0.000000 0.000000 0.000000 -14.508053 1.922438 -10.327294 -3.667920 3.597775 -16.564011 1.927956 -5.165218 5.661289 0.054036 -0.055289 -0.093525 0.984513 -5.044601 16.125822 5.894405 6.271959 41.572657 0.000000 0.000000 0.000000 4.329160 -3.997121 8.524391 1.858525 -4.338776 -0.274869 -131.207114 85.997676 -44.138506 -7.779927 -72.531992 30.116172 0.000000 0.000000 0.000000 -0.003970 -3.251087 8.696936 20.910764 8.748461 1.671438 28.016673 -24.325656 -29.336417 -11.674755 35.813014 -0.007871 0.000000 0.000000 0.000000 
-21.241838 5.429659 -0.139758 -179.270404 83.325555 -179.579224 -0.865460 -7.356985 -29.909634 -5.896441 17.038498 -90.426015 12.277008 -2.990570 82.932819 3.588787 -24.717474 -5.638704 0.000000 0.000000 0.000000 -4.948695 -0.530391 -25.220286 4.241010 -21.957918 -107.098090 -0.967328 -5.553581 132.792866 -5.772177 32.583301 7.756512 0.000000 0.000000 0.000000 -13.829372 2.301825 -10.624827 -3.374849 3.087474 -16.706643 1.767985 -5.380042 5.643908 0.053394 -0.073480 -0.049118 0.822163 -5.146207 16.268286 5.148797 6.370622 42.127862 0.000000 0.000000 0.000000 4.203074 -4.172755 8.572514 1.787467 -3.344942 -0.448294 -127.757418 86.012080 -41.177640 -7.477754 -72.410524 29.629750 0.000000 0.000000 0.000000 -0.164118 -3.430509 8.919582 19.833131 8.724147 2.425866 33.338372 -32.748640 -26.276781 -11.711400 34.208429 -0.267767 0.000000 0.000000 0.000000 
-21.172119 5.431821 -0.091661 179.844277 83.908410 179.646515 -0.402127 -7.141872 -29.977345 -5.607308 17.119558 -90.132310 11.891487 -3.528556 83.267628 2.670305 -24.267370 -5.861396 0.000000 0.000000 0.000000 -4.772963 -0.465060 -25.499780 4.000147 -21.542304 -106.971916 -1.643417 -5.144494 132.902449 -4.530380 32.491620 8.300716 0.000000 0.000000 0.000000 -13.015360 2.271815 -11.198788 -3.102420 2.410358 -16.846132 1.530092 -5.516030 5.603153 0.069595 -0.068567 -0.041600 0.547465 -5.197726 16.425809 4.405831 6.659612 42.807077 0.000000 0.000000 0.000000 4.052271 -4.195133 8.691294 1.687348 -2.097129 -0.485701 -125.302238 85.882293 -38.926153 -7.359336 -72.180893 29.139049 0.000000 0.000000 0.000000 -0.428854 -3.422210 9.166467 18.971783 8.930347 3.270321 38.689791 -40.640831 -21.394039 -11.873305 34.269760 -0.799789 0.000000 0.000000 0.000000 
-21.111721 5.445241 -0.025323 179.264858 84.590568 179.125263 0.167144 -6.857875 -30.155453 -5.239508 17.538486 -89.676593 11.671176 -3.646325 83.641738 1.580014 -23.726554 -5.843393 0.000000 0.000000 0.000000 -4.500943 -0.461608 -25.945662 3.566488 -21.126728 -106.686947 -2.546283 -5.134839 132.943485 -4.310089 32.995363 8.746873 0.000000 0.000000 0.000000 -12.125134 2.420091 -11.901164 -2.874908 1.705614 -17.024014 1.258127 -5.718296 5.542363 0.056305 -0.121074 -0.052754 0.247853 -5.197390 16.591837 3.660907 7.026519 43.414130 0.000000 0.000000 0.000000 3.805849 -4.197360 8.785806 1.574738 -0.757678 -0.630492 -120.687530 85.841216 -34.172666 -7.118965 -71.963836 28.682543 0.000000 0.000000 0.000000 -0.754436 -3.387997 9.373675 18.240189 9.206009 4.223199 44.290720 -47.457944 -16.363728 -12.125519 35.625379 -1.632366 0.000000 0.000000 0.000000 
-21.087627 5.468590 0.047898 177.616733 85.090681 177.770249 0.877413 -6.482168 -30.129692 -4.975282 18.037206 -89.348676 11.427047 -3.194252 83.467480 0.319219 -23.190596 -5.509014 0.000000 0.000000 0.000000 -4.079657 -0.366775 -26.696646 3.635542 -20.719509 -106.696004 -2.929827 -4.936205 133.003126 -4.097219 32.688391 9.484157 0.000000 0.000000 0.000000 -11.270657 2.489107 -12.892093 -2.720585 0.782418 -17.194615 0.971722 -5.841071 5.507727 0.096480 -0.137772 -0.022128 -0.073129 -5.175637 16.603128 2.883080 7.421097 43.876066 0.000000 0.000000 0.000000 3.505341 -4.249857 8.874987 1.516692 0.534405 -0.679752 -115.050411 86.003843 -28.034511 -6.705462 -71.894353 27.806277 0.000000 0.000000 0.000000 -1.146395 -3.372980 9.431547 17.711348 9.450510 5.130217 49.858793 -53.128135 -11.745175 -12.486839 37.775290 -2.643329 0.000000 0.000000 0.000000 
-21.061054 5.497249 0.239797 178.083003 85.389386 178.177342 1.803687 -5.882971 -29.947542 -4.551017 18.557817 -88.641423 11.088460 -2.517424 82.974559 -1.017166 -22.750933 -5.094753 0.000000 0.000000 0.000000 -3.414992 -0.049752 -27.360476 4.382529 -20.092637 -106.689467 -3.287684 -4.758335 133.576889 -4.709175 30.670903 9.598774 0.000000 0.000000 0.000000 -10.024104 2.153023 -13.469860 -2.552880 -0.173808 -17.304303 0.696443 -5.768705 5.424466 0.090183 -0.024314 0.014677 -0.403130 -5.106229 16.460606 2.116352 7.911988 44.223077 0.000000 0.000000 0.000000 3.155706 -4.143848 8.792790 1.672854 2.024840 -0.702228 -107.413351 86.495692 -19.748671 -6.566401 -72.156495 27.071615 0.000000 0.000000 0.000000 -1.545537 -3.258044 9.361482 17.403781 9.649084 5.909272 55.578417 -57.386327 -8.683701 -12.918394 40.109156 -3.759878 0.000000 0.000000 0.000000 
-21.039726 5.520931 0.573097 179.571315 85.828055 179.866543 2.061019 -5.308601 -31.181811 -4.212655 19.697103 -87.696671 10.679082 -1.961930 82.247226 -2.681430 -22.037377 -3.347209 0.000000 0.000000 0.000000 -2.714613 0.770831 -28.081884 4.654033 -19.177141 -106.809125 -4.367392 -3.909787 134.409653 -5.161852 30.193527 9.371277 0.000000 0.000000 0.000000 -9.046624 2.973058 -14.160619 -2.456659 -1.267398 -17.333109 0.520695 -5.939353 5.227165 0.083062 -0.115187 0.017453 -0.665021 -5.052926 16.253647 1.314871 8.369558 44.212733 0.000000 0.000000 0.000000 2.918126 -4.205069 8.740167 1.886703 3.362229 -0.637919 -94.073145 87.126009 -5.614262 -6.744250 -72.574585 26.555478 0.000000 0.000000 0.000000 -1.992465 -3.216416 9.194990 17.120554 9.520098 6.592318 62.040090 -60.241784 -8.251865 -13.508296 42.295974 -4.998724 0.000000 0.000000 0.000000 
-21.029379 5.536147 1.020001 179.017482 86.216590 179.096139 1.988476 -5.114571 -31.782725 -3.774696 21.183128 -88.256139 9.893688 -2.295805 81.809950 -4.526498 -21.277141 -1.282965 0.000000 0.000000 0.000000 -2.026635 1.699600 -28.569455 6.081920 -17.862944 -106.951863 -5.098856 -3.195133 135.126878 -6.394394 28.128307 8.953698 0.000000 0.000000 0.000000 -7.884386 3.455608 -14.431382 -2.374305 -2.202666 -17.078751 0.279953 -5.871840 5.035655 0.053919 -0.036822 0.014975 -0.915778 -4.938786 15.837943 0.592650 8.585882 44.073380 0.000000 0.000000 0.000000 2.657273 -4.127403 8.504718 2.206324 4.793675 -0.694676 -70.940496 87.748492 18.158123 -6.847548 -72.831530 25.920281 0.000000 0.000000 0.000000 -2.355609 -3.119471 8.885648 16.969815 9.361780 7.078084 68.718506 -61.674423 -10.148033 -14.157034 43.958121 -6.195213 0.000000 0.000000 0.000000 
